# xmcd
#
# Track frame offsets: 
#        150
#        19713
#        32346
#        42664
#        53544
#        67055
#        84369
#        100995
#        111001
#        123795
#        137455
#        151360
#        178695
#        190506
#        204031
#
# Disc length: 2866 seconds
#
# Revision: 0
# Processed by: cddbd v1.5.2PL0 Copyright (c) Steve Scherf et al.
# Submitted via: ExactAudioCopy v0.95b4
#
DISCID=b40b300f
DTITLE=John Lee Hooker - Boom Boom
DYEAR=2005
DGENRE=Blues
TTITLE0=Boom Boom
TTITLE1=I'm So Excited
TTITLE2=Dimples
TTITLE3=Bottle Up and Go
TTITLE4=Whisky and Women
TTITLE5=Frisco Blues
TTITLE6=Mama, You Got a Daughter
TTITLE7=Onions
TTITLE8=Mambo Chillun
TTITLE9=House Rent Boogie
TTITLE10=Crawlin' King Snake
TTITLE11=Big Legs Tight Skirt
TTITLE12=Good Rockin' Mama
TTITLE13=Baby Lee
TTITLE14=No Shoes
EXTD=
EXTT0=
EXTT1=
EXTT2=
EXTT3=
EXTT4=
EXTT5=
EXTT6=
EXTT7=
EXTT8=
EXTT9=
EXTT10=
EXTT11=
EXTT12=
EXTT13=
EXTT14=
PLAYORDER=
